<svg xmlns="http://www.w3.org/2000/svg" version="1.1" xmlns:xlink="http://www.w3.org/1999/xlink" xmlns:svgjs="http://svgjs.dev/svgjs" width="300.7612359841165"
   height="300.915625" viewBox="0 0 1000 2008"><g transform="matrix(1,0,0,1,-1.413965156794461,0.8129554655870379)"><svg viewBox="0 0 123 247" data-background-color="#ffffff" preserveAspectRatio="xMidYMid meet" height="2008" width="1000" xmlns="http://www.w3.org/2000/svg" xmlns:xlink="http://www.w3.org/1999/xlink"><g id="tight-bounds" transform="matrix(1,0,0,1,0.17391771428572156,-0.09999999999999432)"><svg viewBox="0 0 122.65216457142857 247.2" height="247.2" width="122.65216457142857"><g><svg></svg></g><g><svg viewBox="0 0 122.65216457142857 247.2" height="247.2" width="122.65216457142857"><g transform="matrix(1,0,0,1,0,47.215199999999996)"><svg viewBox="0 0 122.65216457142857 152.7696" height="152.7696" width="122.65216457142857"><g><svg viewBox="0 0 122.65216457142857 152.7696" height="152.7696" width="122.65216457142857"><g><svg viewBox="0 0 122.65216457142857 152.7696" height="152.7696" width="122.65216457142857"><g><svg viewBox="0 0 122.65216457142857 152.7696" height="152.7696" width="122.65216457142857"><g id="textblocktransform"><svg viewBox="0 0 122.65216457142857 152.7696" height="152.7696" width="122.65216457142857" id="textblock"><g><svg viewBox="0 0 122.65216457142857 152.7696" height="152.7696" width="122.65216457142857"><g transform="matrix(1,0,0,1,0,0)"><svg width="122.65216457142857" viewBox="2.5 -35 28.100000381469727 35" height="152.7696" data-palette-color="#ee3e38"><path d="M5.55-32.25L2.5-32.25 2.5-35 14.55-35Q19.7-35 22.5-32.75 25.3-30.5 25.3-26.05L25.3-26.05Q25.3-23.1 23.23-19.93 21.15-16.75 19.15-15.6L19.15-15.6 27.05-2.75 30.6-2.75 30.6 0 25.1 0 16.2-14.35 8.95-14.35 8.95-2.75 12.6-2.75 12.6 0 2.5 0 2.5-2.75 5.55-2.75 5.55-32.25ZM14.3-32.25L14.3-32.25 8.95-32.25 8.95-17.1 17.2-17.1Q21.9-21.4 21.9-25.75L21.9-25.75Q21.9-28.95 19.95-30.6 18-32.25 14.3-32.25Z" opacity="1" transform="matrix(1,0,0,1,0,0)" fill="#ee3e38" class="wordmark-text-0" data-fill-palette-color="primary" id="text-0"></path></svg></g></svg></g></svg></g></svg></g><g></g></svg></g></svg></g></svg></g><path d="M0 41.215L0 1 122.652 1 122.652 41.215 108.875 41.215 108.875 14.777 13.777 14.777 13.777 41.215 0 41.215M0 205.985L0 246.2 122.652 246.2 122.652 205.985 108.875 205.985 108.875 232.423 13.777 232.423 13.777 205.985 0 205.985" fill="#ee3e38" stroke="transparent" data-fill-palette-color="primary"></path></svg></g><defs></defs></svg><rect width="122.65216457142857" height="247.2" fill="none" stroke="none" visibility="hidden"></rect></g></svg></g></svg>